<?xml version="1.0" encoding="UTF-8"?><svg xmlns="http://www.w3.org/2000/svg" viewBox="0 0 463.73 442.32"><defs><style>.d{font-family:Roboto-Regular, Roboto;}.e{font-size:16px;}.e,.f{fill:#fff;}.g{font-family:Roboto-Italic, Roboto;}.h{fill:#39b54a;}.i{letter-spacing:0em;}</style></defs><g id="a"/><g id="b"><g id="c"><g><g><path class="h" d="M233.67,409.49h.06c0,4.26-.2,8.53,.05,12.78,.36,6.24,1.54,12.3,5.72,17.31,3.07,3.68,5.44,3.72,8.2-.18,3.87-5.48,5.67-11.61,4.38-18.33-.86-4.44-2.13-8.81-3.12-13.23-3.76-16.78,1.09-30.87,13.38-42.64,4.75-4.55,10.35-6.04,16.71-4.86,5.67,1.06,11.28,2.46,16.97,3.35,11.66,1.83,16.4-2.69,15.21-14.21-.52-5,1.02-7.45,5.72-9.13,5.45-1.95,11.21-.41,15.31,4.19,2.47,2.77,4.53,6,7.37,8.29,1.65,1.33,4.84,2.16,6.66,1.46,1.83-.7,3.81-3.51,3.96-5.53,.22-2.96-.78-6.17-1.91-9.01-1-2.5-2.96-4.61-4.4-6.95-3.86-6.29-3.78-11.75,.74-17.57,2.43-3.13,5.24-6.04,8.25-8.6,7.38-6.26,12.94-13.75,16.86-22.59,2.06-4.64,4.3-9.23,6.9-13.58,7.1-11.88,17.24-16.97,30.67-13.64,8.79,2.17,17.02,6.63,25.43,10.25,6.04,2.6,11.84,5.79,17.95,8.18,3.52,1.38,7.48,1.23,10.35-1.89,3.01-3.28,3.36-7.4,1.51-11.17-1.33-2.7-3.47-5.45-5.97-6.99-3.31-2.03-7.26-3.14-11.06-4.21-10.42-2.94-21.14-4.97-31.28-8.65-10.34-3.74-17.9-11.09-21.1-22.15-4.21-14.56,2.38-25.86,17.16-29.05,3.47-.75,7.11-.72,10.61-1.39,6.3-1.2,12.76-2.04,18.75-4.16,6.07-2.15,9.06-7.43,9.11-13.94,.06-7.37-5.58-11.88-12.66-9.85-3.36,.96-6.55,2.78-9.59,4.6-3.88,2.33-7.32,5.45-11.33,7.5-5.09,2.61-10.37,5.34-15.88,6.52-17.04,3.66-28.54-9.52-23.02-25.84,.18-.52,.39-1.03,.56-1.55,3.02-8.84,2.86-9.41-4.09-15.52-.82-.72-1.62-1.49-2.33-2.32-3.59-4.22-3.67-8.7,.4-12.44,2.9-2.66,6.25-4.99,9.75-6.77,7.09-3.61,14.54-6.51,21.62-10.14,5.34-2.74,10.63-5.79,15.36-9.45,2.38-1.85,4.53-5.26,4.85-8.17,.32-2.99-.95-6.91-2.95-9.18-2.35-2.68-5.8-.46-8.15,1.31-4.59,3.47-8.93,7.29-13.29,11.06-7.28,6.28-14.21,13.01-21.84,18.81-4.15,3.16-9.25,5.62-14.3,6.93-8.81,2.29-12.02-.98-11.16-9.99,1.03-10.85-2.57-15.15-13.54-15.96-2.45-.18-4.94,.05-7.41,.14-1.51,.06-3.01,.28-4.52,.3-5.52,.08-7.12-1.49-5.93-6.94,.83-3.83,2.11-7.81,4.21-11.07,4.91-7.6,10.47-14.78,15.69-22.18,3-4.26,6.15-8.45,8.7-12.98,2.38-4.24,1.65-7.28-1.26-9.1-3.57-2.23-8.21-1.79-10.79,1.57-1.98,2.58-3.56,5.56-4.82,8.56-2.5,5.95-4.18,12.28-7.07,18.01-2.94,5.82-6.29,11.67-10.59,16.5-6.73,7.56-19.12,8.41-27.63,2.92-4.2-2.71-6.29-6.43-5.44-11.52,.5-2.98,1.29-5.93,1.54-8.92,.14-1.61-.58-3.3-.92-4.95-1.77,.5-4.09,.47-5.18,1.61-2.24,2.34-4.11,5.15-5.59,8.05-2.66,5.23-6.57,8.22-12.47,8.82-12.03,1.22-23.88,.02-35.6-2.58-11.38-2.52-18.56-9.64-21.52-20.91-.73-2.78-1.23-5.63-1.75-8.47-1.32-7.15-2.31-14.37-3.97-21.44-1.28-5.43-4.17-10.19-8.77-13.6-6.34-4.7-17-3.75-21.5,1.82-3.94,4.86-2.47,11.72,3.99,17.78,2.9,2.72,6.17,5.06,9.04,7.82,8.54,8.22,13.86,17.8,11.51,30.15-1.57,8.26-8.95,15.14-17.48,16.61-8.57,1.47-14.19-2.97-18.39-9.71-2.1-3.37-3.59-7.11-5.6-10.54-2.07-3.54-4.09-7.2-6.73-10.3-4.61-5.4-10.77-6.22-17.32-4.34-4.04,1.16-5.26,3.55-3.13,7.16,2.14,3.62,4.74,7.1,7.74,10.03,4.72,4.59,10.13,8.47,14.87,13.04,2.81,2.71,5.54,5.87,7.18,9.35,2.77,5.89-1.14,11.15-7.6,10.9-2.74-.11-5.46-.65-8.21-.76-5.45-.21-7.87,2.11-8,7.57-.07,2.61,.46,5.31-.07,7.8-.4,1.91-1.69,4.51-3.22,5.06-1.43,.51-4.46-.75-5.41-2.16-2.75-4.06-4.8-8.58-7.12-12.92-2-3.74-3.55-7.81-6.08-11.16-4.36-5.78-11.35-5.81-16.43-.61-2.68,2.74-2.51,4.46,.66,6.58,4.22,2.82,8.6,5.44,12.65,8.49,6.62,4.99,9.9,11.76,9.06,20.1-1.52,15.16-8.71,27.37-20.47,36.77-5.93,4.74-13.2,5.78-19.8,2.13-5.89-3.25-11.24-7.75-16.16-12.41-4.76-4.51-8.28-10.33-13.05-14.83-3.71-3.5-8.22-6.47-12.87-8.55-5.67-2.54-12.12-.88-14.75,2.89-3.44,4.92-1.86,9.8,1.01,14.24,1.84,2.85,4.03,5.7,6.69,7.74,4.11,3.16,8.56,6,13.2,8.29,6.14,3.04,12.62,5.39,18.92,8.11,8.68,3.76,16.57,8.67,22.46,16.26,6.82,8.78,7.53,18.11,1.85,27.63-2.59,4.35-6.05,8.2-8.6,12.57-2.4,4.1-4.77,8.42-6,12.96-2.44,9.04,1.04,15.2,9.66,18.74,3.55,1.46,7.27,2.58,10.7,4.28,6.24,3.09,8.83,8.41,7.84,15.3-1.14,7.98-5.94,13.52-12.44,17.59-6.98,4.37-14.33,8.14-21.35,12.44-3.12,1.92-6.2,4.18-8.65,6.88-3.87,4.28-1.89,10.26,3.8,11.37,2.8,.55,6.14,.23,8.81-.8,6.26-2.42,12.32-5.38,18.35-8.34,8.21-4.03,16.72-6.14,25.9-5.02,10.14,1.24,15.85,6.85,16.96,17.02,.46,4.22,.37,8.51,.66,12.75,.65,9.38,4.3,12.65,13.68,12.44,1.64-.04,3.32-.09,4.94,.14,5.25,.75,8.37,4.12,8.64,9.41,.34,6.49-1.95,12.03-7.23,15.79-3.66,2.6-7.85,4.47-11.85,6.57-3.64,1.91-7.59,3.35-10.98,5.62-7.26,4.84-9.96,12.15-9.79,20.61,.07,3.63,2.34,5.59,5.73,4.43,3.95-1.34,8.15-2.93,11.23-5.58,4.53-3.91,8.57-8.57,12.09-13.43,8.27-11.42,19.48-18.39,32.56-22.71,14.3-4.73,28.54-5.33,42.58,1.16,12.27,5.67,19.06,14.91,18.9,28.74-.04,3.16,0,6.32,0,9.48ZM71.09,49.61l.91-.6c-2.61-4.71-4.81-9.71-7.94-14.05-4.02-5.57-10.69-6.91-14.67-3.72-3.76,3.02-3.84,9.63,.15,14.96,2.62,3.5,5.54,6.81,8.58,9.95,6.51,6.73,9.85,5.78,12.33-3.34,.28-1.05,.43-2.13,.64-3.2ZM33.86,239.77c-.04-.58-.07-1.16-.11-1.73-7.57-.32-15.15-.92-22.71-.81-2.86,.04-5.89,1.35-8.5,2.74-3.25,1.73-3.4,4.89-.29,6.86,2.47,1.56,5.41,2.84,8.28,3.23,9.79,1.32,17.08-3.44,23.33-10.28Zm318.13,138.5c-.09,4.92,5.75,10.86,11.74,10.54,3.4-.18,5.95-2.02,5.43-5.34-.62-3.94-1.98-7.97-3.94-11.44-1.61-2.86-4.97-3.96-8.35-2.62-3.28,1.3-4.73,4.01-4.89,8.85ZM293.91,23.74c-.1-6.37-4.38-12.12-8.96-12.04-3.38,.06-5.79,3.07-5.75,7.17,.06,5.13,5.02,10.19,10.01,10.18,3.55,0,4.81-2.07,4.7-5.32Zm149.38,42.8c4.21-.63,8.53-2.56,11.61-6.56,2.04-2.66,1.34-6.07-1.27-7.99-2.51-1.84-6.68-1.63-8.23,.56-2.04,2.89-4.04,5.82-5.86,8.85-2.02,3.37-.89,5.15,3.75,5.13ZM99.24,367c4.74-.14,9.92-4.66,9.65-8.3-.2-2.65-1.57-4.42-4.44-4.31-4.64,.17-10.29,4.65-10.18,8.08,.1,3.35,2.5,4.2,4.98,4.53Z"/><path class="h" d="M233.67,409.49c0-3.16-.03-6.32,0-9.48,.16-13.84-6.64-23.07-18.9-28.74-14.03-6.49-28.27-5.89-42.58-1.16-13.08,4.33-24.29,11.3-32.56,22.71-3.52,4.86-7.56,9.52-12.09,13.43-3.08,2.66-7.28,4.24-11.23,5.58-3.39,1.16-5.66-.81-5.73-4.43-.17-8.46,2.53-15.77,9.79-20.61,3.4-2.27,7.34-3.7,10.98-5.62,4-2.1,8.2-3.97,11.85-6.57,5.28-3.76,7.57-9.3,7.23-15.79-.28-5.29-3.39-8.66-8.64-9.41-1.62-.23-3.29-.18-4.94-.14-9.38,.21-13.03-3.06-13.68-12.44-.29-4.25-.2-8.53-.66-12.75-1.11-10.17-6.82-15.78-16.96-17.02-9.18-1.13-17.7,.99-25.9,5.02-6.03,2.96-12.09,5.92-18.35,8.34-2.67,1.03-6.01,1.34-8.81,.8-5.69-1.11-7.67-7.1-3.8-11.37,2.44-2.7,5.52-4.96,8.65-6.88,7.02-4.31,14.37-8.08,21.35-12.44,6.5-4.07,11.3-9.6,12.44-17.59,.98-6.88-1.6-12.21-7.84-15.3-3.43-1.7-7.14-2.82-10.7-4.28-8.61-3.54-12.09-9.71-9.66-18.74,1.22-4.54,3.6-8.86,6-12.96,2.55-4.37,6.01-8.22,8.6-12.57,5.68-9.53,4.97-18.85-1.85-27.63-5.89-7.59-13.78-12.5-22.46-16.26-6.3-2.73-12.78-5.07-18.92-8.11-4.64-2.3-9.09-5.14-13.2-8.29-2.65-2.04-4.85-4.89-6.69-7.74-2.87-4.44-4.45-9.32-1.01-14.24,2.63-3.77,9.08-5.43,14.75-2.89,4.65,2.08,9.16,5.06,12.87,8.55,4.77,4.5,8.29,10.31,13.05,14.83,4.91,4.66,10.27,9.16,16.16,12.41,6.59,3.64,13.87,2.6,19.8-2.13,11.76-9.4,18.95-21.61,20.47-36.77,.83-8.33-2.44-15.11-9.06-20.1-4.05-3.05-8.42-5.67-12.65-8.49-3.17-2.12-3.34-3.84-.66-6.58,5.08-5.2,12.07-5.17,16.43,.61,2.52,3.34,4.08,7.42,6.08,11.16,2.32,4.34,4.38,8.87,7.12,12.92,.95,1.41,3.99,2.67,5.41,2.16,1.52-.54,2.81-3.14,3.22-5.06,.53-2.49,0-5.19,.07-7.8,.14-5.46,2.56-7.79,8-7.57,2.74,.11,5.46,.65,8.21,.76,6.46,.25,10.38-5.01,7.6-10.9-1.64-3.49-4.37-6.64-7.18-9.35-4.74-4.57-10.15-8.45-14.87-13.04-3-2.92-5.61-6.41-7.74-10.03-2.13-3.61-.91-6,3.13-7.16,6.56-1.88,12.71-1.06,17.32,4.34,2.64,3.09,4.67,6.76,6.73,10.3,2.01,3.43,3.5,7.18,5.6,10.54,4.2,6.74,9.82,11.18,18.39,9.71,8.54-1.46,15.91-8.35,17.48-16.61,2.35-12.35-2.97-21.93-11.51-30.15-2.87-2.76-6.14-5.1-9.04-7.82-6.46-6.06-7.93-12.92-3.99-17.78,4.51-5.56,15.16-6.51,21.5-1.82,4.61,3.41,7.5,8.17,8.77,13.6,1.66,7.07,2.65,14.29,3.97,21.44,.52,2.83,1.02,5.68,1.75,8.47,2.97,11.27,10.14,18.38,21.52,20.91,11.72,2.6,23.57,3.8,35.6,2.58,5.9-.6,9.81-3.59,12.47-8.82,1.48-2.9,3.35-5.71,5.59-8.05,1.09-1.14,3.42-1.11,5.18-1.61,.33,1.65,1.05,3.34,.92,4.95-.25,3-1.04,5.94-1.54,8.92-.86,5.08,1.24,8.81,5.44,11.52,8.51,5.49,20.9,4.64,27.63-2.92,4.3-4.83,7.66-10.68,10.59-16.5,2.89-5.73,4.58-12.06,7.07-18.01,1.26-3.01,2.84-5.99,4.82-8.56,2.58-3.36,7.23-3.8,10.79-1.57,2.91,1.82,3.64,4.87,1.26,9.1-2.55,4.53-5.7,8.72-8.7,12.98-5.22,7.4-10.78,14.58-15.69,22.18-2.1,3.25-3.38,7.24-4.21,11.07-1.19,5.46,.41,7.03,5.93,6.94,1.51-.02,3.01-.25,4.52-.3,2.47-.09,4.96-.32,7.41-.14,10.96,.81,14.56,5.11,13.54,15.96-.85,9.02,2.35,12.28,11.16,9.99,5.05-1.31,10.14-3.77,14.3-6.93,7.64-5.8,14.57-12.53,21.84-18.81,4.36-3.77,8.69-7.59,13.29-11.06,2.35-1.77,5.8-3.99,8.15-1.31,1.99,2.27,3.27,6.2,2.95,9.18-.31,2.91-2.46,6.32-4.85,8.17-4.73,3.67-10.02,6.71-15.36,9.45-7.08,3.63-14.53,6.54-21.62,10.14-3.5,1.78-6.86,4.12-9.75,6.77-4.08,3.74-4,8.22-.4,12.44,.71,.83,1.51,1.6,2.33,2.32,6.95,6.11,7.11,6.68,4.09,15.52-.18,.52-.39,1.03-.56,1.55-5.52,16.32,5.98,29.5,23.02,25.84,5.52-1.19,10.79-3.91,15.88-6.52,4-2.05,7.44-5.17,11.33-7.5,3.03-1.82,6.22-3.63,9.59-4.6,7.08-2.03,12.72,2.48,12.66,9.85-.06,6.51-3.04,11.79-9.11,13.94-5.99,2.12-12.46,2.96-18.75,4.16-3.5,.66-7.13,.64-10.61,1.39-14.77,3.19-21.37,14.49-17.16,29.05,3.2,11.05,10.75,18.4,21.1,22.15,10.14,3.67,20.87,5.71,31.28,8.65,3.8,1.07,7.75,2.18,11.06,4.21,2.51,1.54,4.65,4.3,5.97,6.99,1.85,3.76,1.51,7.89-1.51,11.17-2.87,3.12-6.83,3.27-10.35,1.89-6.11-2.39-11.91-5.58-17.95-8.18-8.4-3.62-16.64-8.08-25.43-10.25-13.43-3.32-23.57,1.76-30.67,13.64-2.6,4.35-4.84,8.94-6.9,13.58-3.92,8.84-9.48,16.33-16.86,22.59-3.02,2.56-5.83,5.48-8.25,8.6-4.52,5.82-4.6,11.28-.74,17.57,1.44,2.34,3.4,4.45,4.4,6.95,1.14,2.84,2.13,6.06,1.91,9.01-.15,2.02-2.13,4.82-3.96,5.53-1.82,.7-5.01-.13-6.66-1.46-2.84-2.29-4.9-5.52-7.37-8.29-4.1-4.6-9.86-6.14-15.31-4.19-4.71,1.69-6.24,4.13-5.72,9.13,1.19,11.52-3.55,16.04-15.21,14.21-5.69-.89-11.3-2.29-16.97-3.35-6.35-1.18-11.96,.31-16.71,4.86-12.29,11.77-17.14,25.86-13.38,42.64,.99,4.42,2.27,8.78,3.12,13.23,1.3,6.71-.5,12.85-4.38,18.33-2.76,3.9-5.13,3.86-8.2,.18-4.18-5.01-5.36-11.07-5.72-17.31-.24-4.25-.05-8.52-.05-12.78h-.06Z"/><path class="h" d="M71.09,49.61c-.21,1.07-.35,2.15-.64,3.2-2.48,9.13-5.81,10.08-12.33,3.34-3.04-3.14-5.96-6.45-8.58-9.95-3.99-5.33-3.91-11.94-.15-14.96,3.98-3.19,10.65-1.86,14.67,3.72,3.13,4.34,5.32,9.34,7.94,14.05l-.91,.6Z"/><path class="h" d="M33.86,239.77c-6.24,6.84-13.53,11.6-23.33,10.28-2.87-.39-5.81-1.67-8.28-3.23-3.11-1.97-2.96-5.13,.29-6.86,2.6-1.39,5.64-2.7,8.5-2.74,7.57-.11,15.14,.49,22.71,.81,.04,.58,.07,1.16,.11,1.73Z"/><path class="h" d="M351.98,378.26c.15-4.84,1.61-7.55,4.89-8.85,3.38-1.34,6.74-.24,8.35,2.62,1.96,3.47,3.32,7.49,3.94,11.44,.52,3.32-2.03,5.16-5.43,5.34-6,.32-11.83-5.62-11.74-10.54Z"/><path class="h" d="M293.91,23.74c.11,3.25-1.15,5.32-4.7,5.32-4.99,0-9.95-5.05-10.01-10.18-.05-4.11,2.36-7.12,5.75-7.17,4.58-.08,8.86,5.67,8.96,12.04Z"/><path class="h" d="M443.28,66.53c-4.64,.02-5.76-1.76-3.75-5.13,1.82-3.03,3.82-5.96,5.86-8.85,1.55-2.19,5.72-2.41,8.23-.56,2.61,1.91,3.3,5.33,1.27,7.99-3.07,4-7.39,5.93-11.61,6.56Z"/><path class="h" d="M99.24,367c-2.47-.33-4.88-1.18-4.98-4.53-.1-3.43,5.54-7.91,10.18-8.08,2.87-.11,4.25,1.66,4.44,4.31,.27,3.64-4.91,8.16-9.65,8.3Z"/></g><path class="f" d="M249.04,146.95c1.13,.43,1.54,1.27,1.45,2.44-.05,.68,0,1.36,0,2.12,.19,0,.41,.03,.63,.03,2.4,0,4.8,0,7.2,0,1.45,0,2.17,.74,2.15,2.19-.08,5.76-1.05,11.36-3.36,16.66-2.07,4.74-4.91,8.91-9.25,11.87-2.33,1.59-4.88,2.57-7.71,2.84-.32,.03-.66,.21-.91,.42-1.12,.91-2.23,1.84-3.32,2.78-.17,.14-.36,.38-.36,.57-.02,2.57-.01,5.13,0,7.7,0,.06,.03,.12,.06,.26,.99,0,2-.01,3.01,0,2.63,.04,4.64,1.2,6,3.45,.68,1.13,.92,2.38,.91,3.68,0,.91,0,1.82,0,2.76,.22,.05,.42,.09,.61,.15,.9,.26,1.45,1.05,1.36,1.96-.09,.91-.78,1.59-1.71,1.68-.14,.01-.29,0-.43,0-11.11,0-22.22,0-33.33,0-1.47,0-2.4-1.04-2.06-2.33,.24-.92,.92-1.33,1.92-1.43,0-.88-.06-1.76,.02-2.64,.08-.98,.12-2.02,.48-2.91,1.08-2.7,3.14-4.19,6.07-4.36,1.11-.07,2.22-.01,3.38-.01,.02-.27,.04-.47,.04-.67,0-2.36,0-4.72,.01-7.08,0-.4-.13-.61-.44-.86-1.1-.87-2.15-1.81-3.24-2.69-.25-.21-.59-.41-.9-.44-4.55-.46-8.22-2.61-11.29-5.88-4.2-4.48-6.6-9.89-7.96-15.81-.56-2.46-.9-4.96-1.03-7.48-.01-.22-.06-.45-.09-.67v-2.36c.49-1.08,1.33-1.42,2.49-1.39,2.27,.06,4.54,.02,6.81,.02h.68c0-.77,.04-1.46,0-2.16-.08-1.17,.32-2.01,1.45-2.43h40.72Zm-38.39,3.76c0,.17,0,.31,0,.45,.1,3.73,.47,7.42,1.15,11.09,.99,5.35,2.55,10.51,5.18,15.31,1.56,2.85,3.45,5.46,6.14,7.37,2.5,1.77,5.23,2.44,8.21,1.48,2.59-.84,4.56-2.56,6.23-4.63,3.46-4.28,5.42-9.28,6.87-14.51,1.12-4.05,1.76-8.2,2.09-12.39,.11-1.37,.15-2.75,.22-4.16h-36.09Zm4.98,56.04h26.1c0-1.19,.06-2.33-.02-3.46-.11-1.64-1.48-2.73-3.33-2.73-6.47,0-12.95,0-19.42,0-.23,0-.46,0-.68,.03-1.34,.15-2.55,1.3-2.64,2.64-.08,1.15-.02,2.31-.02,3.51Zm-15-51.45c.12,1.21,.21,2.36,.35,3.51,.63,5.15,2.16,10,4.97,14.4,1.58,2.49,3.52,4.64,6.04,6.22,.73,.46,1.53,.82,2.3,1.22-2.18-3.94-3.76-8.03-4.93-12.29-1.17-4.27-1.85-8.63-2.23-13.05h-6.49Zm49.6,0c-.79,8.88-2.73,17.43-7.19,25.3,.82-.36,1.62-.74,2.36-1.2,3.15-1.99,5.35-4.83,7.09-8.05,2.06-3.8,3.26-7.89,3.83-12.16,.17-1.28,.26-2.57,.38-3.88h-6.48Zm-18.47,34.87c-2.07,.52-4.11,.51-6.16,0v6.62h6.16v-6.63Z"/><text class="e" transform="translate(200.41 247.57)"><tspan class="d"><tspan x="0" y="0">Correct!</tspan></tspan><tspan class="g"><tspan x="-79.47" y="22">Click </tspan><tspan class="i" x="-41.54" y="22">t</tspan><tspan x="-36.54" y="22">o go </tspan><tspan class="i" x="-2.05" y="22">t</tspan><tspan x="2.94" y="22">o the next question</tspan></tspan></text></g></g></g></svg>