<?xml version="1.0" encoding="UTF-8"?><svg xmlns="http://www.w3.org/2000/svg" viewBox="0 0 159.66 60.16"><defs><style>.d{fill:#ffade1;}.e{fill:#ffdeb5;}.f{fill:#ffbfc7;}.g{fill:#abe9dd;}.h{fill:#c0ade7;}.i{fill:#6fcfeb;}</style></defs><g id="a"/><g id="b"><g id="c"><g><path class="h" d="M5.38,39.6c-1.26,0-2.47-2.45-3.63-7.35C.58,27.36,0,21.85,0,15.75c0-.63,.27-1.12,.8-1.47,.54-.35,1.03-.53,1.47-.53s.8,.14,1.08,.42c.28,.28,.42,.64,.42,1.08,0,5.77,.98,11.32,2.94,16.64,.3-.44,.76-1.34,1.39-2.69,.63-1.35,1.22-2.34,1.78-2.97,.55-.63,1.22-.94,2-.94s1.59,.57,2.44,1.72c.85,1.15,1.58,2.38,2.19,3.69,.61,1.31,.95,2.01,1.03,2.08,1-3.11,1.5-5.99,1.5-8.65l-.33-8.43c-.04-.55,.22-1.03,.78-1.41,.55-.39,1.09-.58,1.61-.58,1.07,0,1.61,2.09,1.61,6.27v3.05c0,4.96-.76,9.37-2.27,13.26-.81,2.22-1.83,3.33-3.05,3.33-.7,0-1.35-.45-1.94-1.36-.59-.91-1.26-2.19-2-3.85-.74-1.66-1.31-2.81-1.72-3.44l-1.66,3.27c-.63,1.29-1.11,2.23-1.44,2.8-.33,.57-.8,1.15-1.39,1.72-.59,.57-1.2,.86-1.83,.86Z"/><path class="i" d="M36.28,13.81c2.66,0,4.85,1.28,6.57,3.83,1.72,2.55,2.58,5.61,2.58,9.18s-.88,6.61-2.64,9.12c-1.76,2.52-4.09,3.77-6.99,3.77s-5.24-1.28-7.02-3.86c-1.78-2.57-2.66-5.43-2.66-8.57,0-4.03,.81-7.25,2.44-9.65,1.74-2.55,4.31-3.83,7.71-3.83Zm-.67,4.55c-1.55,0-2.83,.81-3.83,2.44-1,1.63-1.5,3.35-1.5,5.16,0,2.81,.55,4.96,1.66,6.43,1.11,1.48,2.37,2.22,3.77,2.22,2.51,0,4.12-1.09,4.83-3.27,.3-1.03,.44-2.33,.44-3.88,0-6.06-1.79-9.1-5.38-9.1Z"/><path class="g" d="M55.97,31.56l.06,5.71c0,.67-.31,1.28-.92,1.83-.61,.55-1.21,.83-1.8,.83-.85,0-1.39-.67-1.61-2-.04-.3-.19-3-.44-8.13-.26-5.12-.76-9.14-1.5-12.06-.33-1.4-.5-2.24-.5-2.5,0-1.22,.74-1.83,2.22-1.83,.63,0,1.13,.24,1.5,.72,.37,.48,.6,.97,.69,1.47,.09,.5,.18,1.17,.25,2.02,.07,.85,.13,1.39,.17,1.61,.78-1.85,1.94-3.24,3.49-4.16,1.55-.92,3.25-1.39,5.1-1.39,3.03,0,4.55,.78,4.55,2.33,0,.78-.27,1.4-.8,1.86-.54,.46-1.16,.69-1.86,.69-3.14,0-5.36,1-6.66,3-1.3,2-1.94,5.33-1.94,9.98Z"/><path class="h" d="M83.42,13.7l-.06-10.71c0-2,.64-3,1.91-3s1.99,.55,2.14,1.66c.07,.48,.17,3.38,.28,8.71,.11,5.33,.29,10.32,.53,14.98,.24,4.66,.36,9.01,.36,13.04,0,1.11-.83,1.66-2.5,1.66-1.11,0-1.66-.78-1.66-2.33-1.59,1.26-3.48,1.89-5.66,1.89-2.77,0-5.02-1.03-6.74-3.11-1.72-2.07-2.58-4.62-2.58-7.65s.62-5.87,1.86-8.51c1.24-2.64,3.17-4.54,5.8-5.69,1.63-.7,3.2-1.05,4.71-1.05,.55,0,1.09,.04,1.61,.11Zm.31,7.57c-.28-.79-.6-1.41-.97-1.83-.37-.42-.77-.68-1.19-.78-.43-.09-.93-.14-1.53-.14s-1.31,.22-2.16,.67c-.85,.44-1.57,1.17-2.16,2.16-1.18,2-1.77,4.1-1.77,6.3s.43,3.99,1.3,5.38c.87,1.39,2.11,2.08,3.72,2.08s2.87-.79,3.8-2.39c.92-1.59,1.39-3.62,1.39-6.1,0-2.77-.14-4.56-.42-5.35Z"/><path class="e" d="M91.66,3.74c.09-1.39,.31-2.29,.67-2.72,.35-.42,.92-.64,1.69-.64,1.59,0,2.39,.65,2.39,1.94,0,1-.08,3.61-.25,7.82s-.25,7.99-.25,11.32,.13,6.01,.39,8.04c.44,3.55,1.07,5.33,1.89,5.33s1.42-.57,1.83-1.72c.18-.44,.48-.84,.89-1.19,.41-.35,.92-.53,1.55-.53,1.29,0,1.94,1.09,1.94,3.27,0,1.18-.64,2.36-1.91,3.52-1.28,1.16-2.54,1.75-3.8,1.75s-2.27-.21-3.02-.64c-.76-.42-1.37-1.06-1.83-1.91-.46-.85-.83-1.67-1.11-2.47-.28-.79-.47-1.77-.58-2.91-.22-1.85-.38-4.82-.47-8.9-.09-4.09-.14-7.99-.14-11.7s.05-6.27,.14-7.65Z"/><path class="d" d="M142.5,13.7c-1.85,0-3.55,.46-5.1,1.39-1.55,.92-2.72,2.31-3.49,4.16-.04-.22-.09-.76-.17-1.61-.07-.85-.16-1.53-.25-2.02-.09-.5-.32-.99-.69-1.47-.37-.48-.87-.72-1.5-.72-1.48,0-2.22,.61-2.22,1.83,0,.26,.17,1.09,.5,2.5,.74,2.92,1.24,6.94,1.5,12.06,.22,4.36,.36,6.95,.42,7.82,.44-.79,1.27-1.34,2.24-1.34,.87,0,1.63,.43,2.1,1.09,0-.04,.01-.07,.01-.11l-.06-5.71c0-4.66,.65-7.99,1.94-9.98,1.29-2,3.51-3,6.66-3,.7,0,1.32-.23,1.86-.69,.54-.46,.8-1.08,.8-1.86,0-1.55-1.52-2.33-4.55-2.33Z"/><path class="i" d="M137.65,48.37l.41,1.81c.07,.33,0,.63-.21,.9-.21,.27-.47,.44-.76,.5-.43,.09-.7-.08-.81-.5-1.4-5.47-2.17-8.49-2.3-9.08-.13-.59-.25-1.31-.38-2.17-.03-.32,.13-.52,.5-.59,.92-.2,1.51,.07,1.79,.78,.13,.37,.22,.67,.27,.89l.25,1.66,1.24,5.81Z"/><path class="i" d="M145.65,38.55l-1.2-5.48c-.22-1.02,0-1.61,.65-1.75s1.08,.07,1.28,.62c.09,.24,.46,1.72,1.1,4.43,.64,2.72,1.28,5.26,1.91,7.62,.63,2.36,1.17,4.58,1.61,6.64,.12,.57-.24,.94-1.1,1.13-.57,.12-.94-.22-1.11-1.01-.68,.82-1.58,1.35-2.69,1.59-1.42,.3-2.69,.02-3.8-.85-1.11-.87-1.83-2.09-2.16-3.64-.33-1.55-.33-3.08,.02-4.57,.35-1.49,1.13-2.67,2.35-3.55,.76-.54,1.52-.89,2.3-1.06,.28-.06,.56-.1,.84-.12Zm.99,3.85c-.23-.38-.46-.65-.7-.83-.24-.18-.47-.27-.7-.27-.23,0-.49,.03-.8,.1-.3,.07-.65,.26-1.04,.58-.39,.32-.68,.77-.87,1.35-.39,1.15-.46,2.29-.22,3.42,.24,1.13,.66,2,1.26,2.62,.6,.62,1.31,.84,2.13,.66,.82-.18,1.39-.72,1.69-1.64,.3-.92,.31-2.01,.04-3.28-.3-1.42-.57-2.32-.8-2.7Z"/><path class="i" d="M152.71,40.89c.49-.63,1.14-1.03,1.93-1.2s1.59-.19,2.38-.06c.79,.13,1.24,.43,1.34,.9,.05,.24,0,.46-.15,.64-.16,.18-.3,.29-.44,.32-.14,.03-.24,.05-.32,.06-.08,0-.39-.06-.94-.21-.55-.15-1.03-.18-1.45-.09-.41,.09-.75,.27-1,.54-.25,.27-.33,.61-.25,1.01s.32,.68,.71,.84c.39,.16,1.02,.23,1.9,.21,.88-.02,1.58,.08,2.09,.28,.51,.2,.86,.71,1.03,1.53,.25,1.19,.12,2.09-.39,2.72-.52,.63-1.22,1.03-2.11,1.22s-1.67,.23-2.34,.12c-.67-.11-1.06-.41-1.17-.89-.12-.56,.1-.9,.66-1.02,.14-.03,.48,0,1.01,.1,.53,.1,1.03,.09,1.51,0,.48-.1,.81-.33,1-.7,.18-.36,.23-.74,.15-1.14s-.31-.66-.68-.76c-.37-.11-.9-.15-1.6-.12-.7,.03-1.22,.01-1.56-.05-.93-.16-1.53-.83-1.78-2.02-.18-.84-.02-1.58,.47-2.21Z"/><path class="f" d="M124.53,31.17c-.59-.55-1.04-.83-1.33-.83-.67,0-1.77,.73-3.33,2.19-1.55,1.46-3.48,2.19-5.77,2.19-.63,0-1.13-.2-1.5-.61-1.18-1-1.98-3.07-2.39-6.21,2.07,0,3.62-.07,4.66-.22,2.4-.33,4.33-1.28,5.77-2.86,1.44-1.57,2.16-3.2,2.16-4.88s-.89-3.1-2.66-4.24c-1.78-1.15-3.64-1.72-5.6-1.72-3.11,0-5.38,1.11-6.82,3.33-1.44,2.22-2.16,4.86-2.16,7.93s.48,5.88,1.44,8.43c1.52,4.14,3.88,6.21,7.1,6.21,.43,0,.88-.05,1.34-.11-.01-.14-.04-.27-.04-.41,0-2.17,1.76-3.93,3.93-3.93,1.13,0,2.14,.48,2.86,1.24,2.14-1.7,3.23-3.02,3.23-3.94,0-.48-.3-1-.89-1.55Zm-13.31-10.98c1-1.59,2.2-2.39,3.61-2.39,2.07,0,3.11,.78,3.11,2.33,0,2.55-2.59,3.83-7.77,3.83,.33-1.96,.68-3.22,1.05-3.77Z"/><path class="i" d="M136.5,55.03c.36,1,.09,1.66-.82,2-.38,.14-1.25-.61-2.59-2.25-1.34-1.64-2.75-2.77-4.23-3.39-.05,.19-.35,.77-.9,1.75-.54,.98-.86,1.57-.96,1.78l1.16,3.19c.07,.33,.11,.6,.11,.79,0,.19-.09,.4-.26,.63-.17,.23-.44,.41-.83,.55-.57,.21-.99-.04-1.24-.74-.72-1.98-1.92-5.01-3.6-9.1-1.68-4.09-3.12-7.78-4.32-11.08-.15-.4-.1-.78,.15-1.14,.24-.35,.55-.6,.91-.73,.49-.18,.9,.02,1.23,.6l2.06,5.64c.25,.68,.44,1.19,.59,1.52,.14,.33,.35,.84,.62,1.51,.55,1.39,1.2,2.94,1.95,4.67,.45-.69,.97-1.72,1.57-3.08,.6-1.36,1.01-2.49,1.24-3.39,.32-1.49,.8-2.35,1.44-2.58,.17-.06,.35-.08,.56-.06,.54,.09,.87,.31,.99,.65,.12,.34,.14,.84,.04,1.5-.28,1.6-.73,3.12-1.33,4.56,1.34,.71,2.85,1.89,4.53,3.51,1.04,1.07,1.69,1.96,1.95,2.68Z"/></g></g></g></svg>